<svg xmlns="http://www.w3.org/2000/svg" style="height: 0; width: 0; position: absolute;"><symbol id="icon-error" viewBox="0 0 48 48"><g class="nc-icon-wrapper" stroke-linejoin="round" stroke-linecap="round"><circle cx="24" cy="35" r="1" fill="currentColor" stroke="none"></circle><circle cx="24" cy="24" r="22" fill="none" stroke="currentColor" stroke-linecap="round" stroke-miterlimit="10"></circle><path fill="none" stroke="currentColor" stroke-linecap="round" stroke-miterlimit="10" d="M24 12L24 28"></path><circle cx="24" cy="35" r="1" fill="none" stroke="currentColor" stroke-linecap="round" stroke-miterlimit="10"></circle></g></symbol><symbol id="icon-location" viewBox="0 0 24 24"><g class="nc-icon-wrapper"><path d="M12,2C8.7,2,6,4.7,6,8c0,5.2,6,11.1,6,11.1s6-6,6-11.1C18,4.7,15.3,2,12,2z M12,5.9c1.1,0,2.1,1,2.1,2.1	c0,1.2-0.9,2.1-2.1,2.1S9.9,9.1,9.9,8C9.9,6.8,10.9,5.9,12,5.9z M6.8,15.1c-1.3,0.3-2.3,0.6-3.2,1c-0.4,0.2-0.8,0.5-1.1,0.8	S2,17.8,2,18.3c0,0.8,0.5,1.4,1.1,1.8s1.3,0.7,2.2,1C7.1,21.7,9.4,22,12,22s4.9-0.3,6.7-0.8c0.9-0.3,1.6-0.6,2.2-1s1.1-1,1.1-1.8	c0-1-0.8-1.7-1.6-2.2c-0.8-0.5-1.9-0.8-3.2-1l-0.3,2c1.1,0.2,2,0.5,2.6,0.8c0.4,0.2,0.5,0.4,0.6,0.4c0,0-0.1,0.1-0.2,0.2	c-0.3,0.2-0.9,0.5-1.6,0.7C16.6,19.7,14.4,20,12,20s-4.6-0.3-6.1-0.8c-0.7-0.2-1.3-0.5-1.6-0.7c-0.1-0.1-0.2-0.2-0.2-0.2	c0.1-0.1,0.2-0.2,0.5-0.4c0.6-0.3,1.5-0.6,2.7-0.8L6.8,15.1z" stroke="none"></path><path class="st0" d="M0 0H24V24H0z" fill="none" stroke="none"></path></g></symbol><symbol id="icon-delete" viewBox="0 0 48 48"><g class="nc-icon-wrapper"><path d="M36.728,8.443l-12.728,12.729L11.272,8.443c-.391-.391-1.024-.391-1.414,0l-1.414,1.414c-.391,.391-.391,1.024,0,1.414l12.728,12.729-12.728,12.729c-.39,.391-.39,1.024,0,1.414l1.414,1.414c.391,.391,1.024,.391,1.414,0l12.728-12.729,12.728,12.729c.391,.391,1.024,.391,1.414,0l1.414-1.414c.391-.391,.391-1.024,0-1.414l-12.728-12.729,12.728-12.729c.39-.391,.39-1.024,0-1.414l-1.414-1.414c-.391-.391-1.024-.391-1.414,0Z" fill="currentColor" stroke="none" class="nc-icon-wrapper"></path></g></symbol><symbol id="icon-search" viewBox="0 0 32 32"><g class="nc-icon-wrapper"><path d="M30.414,27.586,22.77,19.942a12.038,12.038,0,1,0-2.828,2.828l7.644,7.644a2,2,0,0,0,2.828-2.828ZM3,13A10,10,0,1,1,13,23,10.011,10.011,0,0,1,3,13Z" fill="currentColor" stroke="none" class="nc-icon-wrapper"></path></g></symbol><symbol id="icon-spinner" viewBox="0 0 32 32"><g class="nc-icon-wrapper"><path d="M16 0.75c-0.69 0-1.25 0.56-1.25 1.25s0.56 1.25 1.25 1.25v0c7.042 0.001 12.75 5.71 12.75 12.751 0 3.521-1.427 6.709-3.734 9.016v0c-0.226 0.226-0.365 0.538-0.365 0.883 0 0.69 0.56 1.25 1.25 1.25 0.346 0 0.659-0.14 0.885-0.367l0-0c2.759-2.76 4.465-6.572 4.465-10.782 0-8.423-6.828-15.251-15.25-15.251h-0z" stroke="none" class="nc-icon-wrapper"></path></g></symbol></svg>